<svg width="101" height="28" viewBox="0 0 101 28" fill="none" xmlns="http://www.w3.org/2000/svg">
<path d="M15.0275 24.1392H2.53198V4.48222H6.71681V20.4553H15.0275V24.1392ZM19.7263 8.37235C18.518 8.37235 17.4865 7.37035 17.4865 6.13258C17.4865 4.89481 18.518 3.92228 19.7263 3.92228C20.964 3.92228 21.966 4.89481 21.966 6.13258C21.966 7.37035 20.964 8.37235 19.7263 8.37235ZM21.6124 24.1392H17.8696V9.90483H21.6124V24.1392ZM30.4515 24.4928C27.976 24.4928 25.5889 23.6676 24.0859 22.2825L25.7067 19.6596C26.7382 20.6322 28.8601 21.6047 30.6283 21.6047C32.2492 21.6047 33.0155 20.9563 33.0155 20.0722C33.0155 17.7146 24.5574 19.6301 24.5574 14.0307C24.5574 11.6436 26.6498 9.55118 30.3926 9.55118C32.8092 9.55118 34.7248 10.3764 36.1394 11.4962L34.6364 14.0602C33.7817 13.1466 32.1608 12.4098 30.4221 12.4098C29.0664 12.4098 28.1823 13.0287 28.1823 13.8244C28.1823 15.9463 36.6109 14.1781 36.6109 19.9249C36.6109 22.5183 34.4006 24.4928 30.4515 24.4928ZM44.1425 24.4928C41.5196 24.4928 40.105 23.1372 40.105 20.6027V13.1761H37.7474V9.90483H40.105V6.0147H43.8773V9.90483H46.7654V13.1761H43.8773V19.6007C43.8773 20.4848 44.3488 21.1626 45.174 21.1626C45.7339 21.1626 46.2644 20.9563 46.4707 20.75L47.2664 23.5792C46.7064 24.0802 45.7044 24.4928 44.1425 24.4928Z" fill="#2C2C2C"/>
<path d="M84.9444 24.4928C80.6123 24.4928 77.341 21.5752 77.341 17.0073C77.341 12.8814 80.3765 9.55118 84.7087 9.55118C88.9525 9.55118 91.8406 12.734 91.8406 17.3904V18.2156H81.2606C81.4964 20.0133 82.9404 21.5163 85.357 21.5163C86.5653 21.5163 88.2452 20.9858 89.1587 20.1017L90.8091 22.5183C89.3945 23.815 87.1547 24.4928 84.9444 24.4928ZM88.2157 15.6811C88.1273 14.3254 87.1842 12.5277 84.7087 12.5277C82.3805 12.5277 81.3785 14.2665 81.2017 15.6811H88.2157ZM96.3445 24.4633C95.0478 24.4633 93.9574 23.3729 93.9574 22.0762C93.9574 20.7795 95.0478 19.6891 96.3445 19.6891C97.6412 19.6891 98.7317 20.7795 98.7317 22.0762C98.7317 23.3729 97.6412 24.4633 96.3445 24.4633Z" fill="#2C2C2C"/>
<rect x="51.665" y="3.55713" width="3.99819" height="21.2308" rx="1.9991" fill="url(#paint0_linear_654_8630)"/>
<path d="M53.7271 24.8069C52.623 24.8069 51.728 23.9119 51.728 22.8078C51.728 21.7037 52.623 20.8087 53.7271 20.8087H72.434C73.7637 20.8087 74.8416 21.8867 74.8416 23.2164V24.8069H53.7271Z" fill="url(#paint1_linear_654_8630)"/>
<rect width="3.99817" height="17.9918" rx="1.99909" transform="matrix(0.70711 -0.707103 0.70711 0.707103 50.9648 5.53613)" fill="#2C2C2C"/>
<rect width="3.99817" height="17.9918" rx="1.99909" transform="matrix(0.70711 0.707103 -0.70711 0.707103 73.6167 2.73706)" fill="#2C2C2C"/>
<path d="M71.6479 5.6197C71.6479 4.51563 72.543 3.62061 73.647 3.62061C74.7511 3.62061 75.6461 4.51563 75.6461 5.6197V24.8078H74.0556C72.7259 24.8078 71.6479 23.7299 71.6479 22.4002V5.6197Z" fill="#2C2C2C"/>
<defs>
<linearGradient id="paint0_linear_654_8630" x1="53.5942" y1="1.75989" x2="54.1817" y2="24.4076" gradientUnits="userSpaceOnUse">
<stop stop-color="#2C2C2C"/>
<stop offset="1" stop-color="#2C2C2C" stop-opacity="0"/>
</linearGradient>
<linearGradient id="paint1_linear_654_8630" x1="49.7714" y1="22.8777" x2="74.4244" y2="22.1814" gradientUnits="userSpaceOnUse">
<stop stop-color="#2C2C2C"/>
<stop offset="1" stop-color="#2C2C2C" stop-opacity="0"/>
</linearGradient>
</defs>
</svg>
